<?xml version="1.0" encoding="UTF-8"?>
<!DOCTYPE svg PUBLIC "-//W3C//DTD SVG 1.1//EN" "http://www.w3.org/Graphics/SVG/1.1/DTD/svg11.dtd">
<svg xmlns="http://www.w3.org/2000/svg" version="1.1" width="858px" height="864px" style="shape-rendering:geometricPrecision; text-rendering:geometricPrecision; image-rendering:optimizeQuality; fill-rule:evenodd; clip-rule:evenodd" xmlns:xlink="http://www.w3.org/1999/xlink">
<g><path style="opacity:1" fill="#bb3e5e" d="M 704.5,182.5 C 703.791,183.404 702.791,183.737 701.5,183.5C 553.494,161.834 415.827,189.834 288.5,267.5C 278.537,260.864 268.87,253.864 259.5,246.5C 259.027,245.094 258.027,244.427 256.5,244.5C 252.205,242.192 248.205,239.526 244.5,236.5C 244.027,235.094 243.027,234.427 241.5,234.5C 234.739,230.922 228.072,227.089 221.5,223C 220.549,222.282 220.383,221.449 221,220.5C 291.014,150.32 361.18,80.3197 431.5,10.5C 538.963,42.3608 629.963,99.6942 704.5,182.5 Z"/></g>
<g><path style="opacity:0.627" fill="#e5b2bf" d="M 704.5,182.5 C 705.289,182.783 705.956,183.283 706.5,184C 704.613,184.78 702.946,184.613 701.5,183.5C 702.791,183.737 703.791,183.404 704.5,182.5 Z"/></g>
<g><path style="opacity:0.565" fill="#dfa0af" d="M 241.5,234.5 C 243.027,234.427 244.027,235.094 244.5,236.5C 242.973,236.573 241.973,235.906 241.5,234.5 Z"/></g>
<g><path style="opacity:0.565" fill="#e1a4b2" d="M 256.5,244.5 C 258.027,244.427 259.027,245.094 259.5,246.5C 257.973,246.573 256.973,245.906 256.5,244.5 Z"/></g>
<g><path style="opacity:1" fill="#bb3e5e" d="M 200.5,250.5 C 200.821,252.048 201.821,252.715 203.5,252.5C 245.473,275.128 281.806,304.795 312.5,341.5C 312.427,343.027 313.094,344.027 314.5,344.5C 320.784,350.397 326.117,357.064 330.5,364.5C 330.427,366.027 331.094,367.027 332.5,367.5C 334.326,369.147 335.66,371.147 336.5,373.5C 336.427,375.027 337.094,376.027 338.5,376.5C 338.427,378.027 339.094,379.027 340.5,379.5C 390.323,456.469 410.49,540.803 401,632.5C 398.431,657.013 393.431,681.013 386,704.5C 335.965,754.701 285.799,804.701 235.5,854.5C 160.159,855.164 85.1592,854.497 10.5,852.5C 20.7689,820.027 31.4356,787.693 42.5,755.5C 73.8404,755.833 105.174,755.5 136.5,754.5C 136.376,753.893 136.043,753.56 135.5,753.5C 127.59,743.345 119.923,733.012 112.5,722.5C 92.9784,722.163 73.6451,721.163 54.5,719.5C 66.5715,681.286 79.2382,643.286 92.5,605.5C 93.0431,605.44 93.3764,605.107 93.5,604.5C 70.0035,603.833 46.6702,603.167 23.5,602.5C 53.6918,510.425 84.1918,418.425 115,326.5C 141.167,300.333 167.333,274.167 193.5,248C 195.963,248.22 198.296,249.054 200.5,250.5 Z M 221.5,467.5 C 220.094,467.973 219.427,468.973 219.5,470.5C 217.11,471.891 215.443,473.891 214.5,476.5C 212.251,477.08 210.585,478.413 209.5,480.5C 183.731,495.819 160.731,492.485 140.5,470.5C 140.573,468.973 139.906,467.973 138.5,467.5C 125.865,442.174 130.199,420.34 151.5,402C 191.345,381.578 231.345,361.411 271.5,341.5C 285.64,355.302 298.306,370.302 309.5,386.5C 280.067,395.942 250.401,404.608 220.5,412.5C 222.906,417.658 225.073,422.991 227,428.5C 230.247,442.254 228.414,455.254 221.5,467.5 Z M 233.5,646.5 C 231.251,647.08 229.585,648.413 228.5,650.5C 226.833,651.5 225.5,652.833 224.5,654.5C 221.911,655.419 219.911,657.086 218.5,659.5C 217.167,660.167 216.167,661.167 215.5,662.5C 212.911,663.419 210.911,665.086 209.5,667.5C 208.167,668.167 207.167,669.167 206.5,670.5C 203.911,671.419 201.911,673.086 200.5,675.5C 174.521,631.556 149.021,587.222 124,542.5C 123.333,541.5 123.333,540.5 124,539.5C 131,532.5 138,525.5 145,518.5C 176.53,559.063 207.697,599.897 238.5,641C 236.627,642.704 234.96,644.537 233.5,646.5 Z M 342.5,653.5 C 343.11,654.391 343.443,655.391 343.5,656.5C 336.368,663.131 329.368,669.964 322.5,677C 321.833,677.667 321.167,677.667 320.5,677C 282.167,637.333 243.833,597.667 205.5,558C 217.133,548.036 228.466,537.702 239.5,527C 240.167,526.333 240.833,526.333 241.5,527C 275,569.33 308.667,611.496 342.5,653.5 Z"/></g>
<g><path style="opacity:1" fill="#bb3e5e" d="M 850.5,506.5 C 850.784,508.415 850.451,510.081 849.5,511.5C 840.507,503.84 831.84,495.84 823.5,487.5C 823.027,486.094 822.027,485.427 820.5,485.5C 808.476,475.803 796.476,466.136 784.5,456.5C 784.027,455.094 783.027,454.427 781.5,454.5C 779.77,453.974 778.436,452.974 777.5,451.5C 777.027,450.094 776.027,449.427 774.5,449.5C 766.205,444.526 758.205,439.192 750.5,433.5C 750.027,432.094 749.027,431.427 747.5,431.5C 632.172,361.755 507.172,332.755 372.5,344.5C 370.097,344.552 367.764,344.219 365.5,343.5C 351.269,326.764 336.102,310.764 320,295.5C 319.312,294.668 319.479,294.002 320.5,293.5C 445.321,244.412 572.655,236.912 702.5,271C 731.599,279.088 759.933,289.255 787.5,301.5C 821.647,365.743 842.647,434.077 850.5,506.5 Z"/></g>
<g><path style="opacity:0.941" fill="#df9ba9" d="M 200.5,250.5 C 201.71,250.932 202.71,251.599 203.5,252.5C 201.821,252.715 200.821,252.048 200.5,250.5 Z"/></g>
<g><path style="opacity:0.816" fill="#e1a2b0" d="M 312.5,341.5 C 313.906,341.973 314.573,342.973 314.5,344.5C 313.094,344.027 312.427,343.027 312.5,341.5 Z"/></g>
<g><path style="opacity:0.502" fill="#e5b1be" d="M 365.5,343.5 C 367.764,344.219 370.097,344.552 372.5,344.5C 371.726,345.147 370.726,345.48 369.5,345.5C 367.645,345.66 366.312,344.993 365.5,343.5 Z"/></g>
<g><path style="opacity:0.565" fill="#e1a4b2" d="M 330.5,364.5 C 331.906,364.973 332.573,365.973 332.5,367.5C 331.094,367.027 330.427,366.027 330.5,364.5 Z"/></g>
<g><path style="opacity:0.502" fill="#e2acb9" d="M 404.5,374.5 C 399.706,373.903 395.373,374.57 391.5,376.5C 390.733,375.828 390.066,374.995 389.5,374C 394.684,373.184 399.684,373.35 404.5,374.5 Z"/></g>
<g><path style="opacity:1" fill="#bb3e5e" d="M 404.5,374.5 C 489.077,378.31 569.077,399.31 644.5,437.5C 644.821,439.048 645.821,439.715 647.5,439.5C 652.14,441.82 656.807,444.153 661.5,446.5C 661.821,448.048 662.821,448.715 664.5,448.5C 726.405,482.498 780.405,526.498 826.5,580.5C 826.427,582.027 827.094,583.027 828.5,583.5C 837.559,592.73 845.726,602.73 853,613.5C 848.133,695.971 826.3,773.638 787.5,846.5C 775.19,808.881 759.857,772.548 741.5,737.5C 741.715,735.821 741.048,734.821 739.5,734.5C 738.5,732.5 737.5,730.5 736.5,728.5C 736.715,726.821 736.048,725.821 734.5,725.5C 701.108,667.742 659.441,616.408 609.5,571.5C 609.027,570.094 608.027,569.427 606.5,569.5C 604.833,568.5 603.5,567.167 602.5,565.5C 602.027,564.094 601.027,563.427 599.5,563.5C 589.461,555.489 579.461,547.489 569.5,539.5C 569.027,538.094 568.027,537.427 566.5,537.5C 564.77,536.974 563.436,535.974 562.5,534.5C 562.027,533.094 561.027,532.427 559.5,532.5C 556.865,531.189 554.531,529.522 552.5,527.5C 552.027,526.094 551.027,525.427 549.5,525.5C 549.027,524.094 548.027,523.427 546.5,523.5C 546.027,522.094 545.027,521.427 543.5,521.5C 543.027,520.094 542.027,519.427 540.5,519.5C 537.489,518.331 534.822,516.664 532.5,514.5C 532.027,513.094 531.027,512.427 529.5,512.5C 502.883,496.691 475.216,482.691 446.5,470.5C 441.822,461.145 437.156,451.811 432.5,442.5C 432.715,440.821 432.048,439.821 430.5,439.5C 429.167,436.833 427.833,434.167 426.5,431.5C 426.715,429.821 426.048,428.821 424.5,428.5C 414.499,410.49 403.499,393.157 391.5,376.5C 395.373,374.57 399.706,373.903 404.5,374.5 Z"/></g>
<g><path style="opacity:0.565" fill="#dfa0af" d="M 336.5,373.5 C 337.906,373.973 338.573,374.973 338.5,376.5C 337.094,376.027 336.427,375.027 336.5,373.5 Z"/></g>
<g><path style="opacity:0.565" fill="#dfa0af" d="M 338.5,376.5 C 339.906,376.973 340.573,377.973 340.5,379.5C 339.094,379.027 338.427,378.027 338.5,376.5 Z"/></g>
<g><path style="opacity:1" fill="#be4563" d="M 168.5,456.5 C 168.027,455.094 167.027,454.427 165.5,454.5C 159.028,446.016 158.861,437.35 165,428.5C 173.539,421.509 182.705,420.676 192.5,426C 201.155,435.412 201.655,445.245 194,455.5C 187.166,460.609 179.666,461.776 171.5,459C 170.058,458.623 169.058,457.79 168.5,456.5 Z"/></g>
<g><path style="opacity:0.941" fill="#df9ba9" d="M 424.5,428.5 C 426.048,428.821 426.715,429.821 426.5,431.5C 425.599,430.71 424.932,429.71 424.5,428.5 Z"/></g>
<g><path style="opacity:0.565" fill="#df9ead" d="M 747.5,431.5 C 749.027,431.427 750.027,432.094 750.5,433.5C 748.973,433.573 747.973,432.906 747.5,431.5 Z"/></g>
<g><path style="opacity:0.941" fill="#e19eab" d="M 644.5,437.5 C 645.71,437.932 646.71,438.599 647.5,439.5C 645.821,439.715 644.821,439.048 644.5,437.5 Z"/></g>
<g><path style="opacity:0.941" fill="#df9ba9" d="M 430.5,439.5 C 432.048,439.821 432.715,440.821 432.5,442.5C 431.599,441.71 430.932,440.71 430.5,439.5 Z"/></g>
<g><path style="opacity:0.941" fill="#e19eab" d="M 661.5,446.5 C 662.71,446.932 663.71,447.599 664.5,448.5C 662.821,448.715 661.821,448.048 661.5,446.5 Z"/></g>
<g><path style="opacity:0.627" fill="#de9cab" d="M 774.5,449.5 C 776.027,449.427 777.027,450.094 777.5,451.5C 775.973,451.573 774.973,450.906 774.5,449.5 Z"/></g>
<g><path style="opacity:0.816" fill="#e1a2b0" d="M 165.5,454.5 C 167.027,454.427 168.027,455.094 168.5,456.5C 166.973,456.573 165.973,455.906 165.5,454.5 Z"/></g>
<g><path style="opacity:0.627" fill="#de9cab" d="M 781.5,454.5 C 783.027,454.427 784.027,455.094 784.5,456.5C 782.973,456.573 781.973,455.906 781.5,454.5 Z"/></g>
<g><path style="opacity:0.627" fill="#dd9aaa" d="M 138.5,467.5 C 139.906,467.973 140.573,468.973 140.5,470.5C 139.094,470.027 138.427,469.027 138.5,467.5 Z"/></g>
<g><path style="opacity:0.627" fill="#dd9aaa" d="M 221.5,467.5 C 221.573,469.027 220.906,470.027 219.5,470.5C 219.427,468.973 220.094,467.973 221.5,467.5 Z"/></g>
<g><path style="opacity:0.816" fill="#d98c9d" d="M 214.5,476.5 C 213.415,478.587 211.749,479.92 209.5,480.5C 210.585,478.413 212.251,477.08 214.5,476.5 Z"/></g>
<g><path style="opacity:0.816" fill="#e19fad" d="M 820.5,485.5 C 822.027,485.427 823.027,486.094 823.5,487.5C 821.973,487.573 820.973,486.906 820.5,485.5 Z"/></g>
<g><path style="opacity:0.502" fill="#e0a3b2" d="M 850.5,506.5 C 851.629,508.628 851.796,510.961 851,513.5C 850.283,512.956 849.783,512.289 849.5,511.5C 850.451,510.081 850.784,508.415 850.5,506.5 Z"/></g>
<g><path style="opacity:0.565" fill="#df9ead" d="M 529.5,512.5 C 531.027,512.427 532.027,513.094 532.5,514.5C 530.973,514.573 529.973,513.906 529.5,512.5 Z"/></g>
<g><path style="opacity:0.565" fill="#df9ead" d="M 540.5,519.5 C 542.027,519.427 543.027,520.094 543.5,521.5C 541.973,521.573 540.973,520.906 540.5,519.5 Z"/></g>
<g><path style="opacity:0.565" fill="#dfa0af" d="M 543.5,521.5 C 545.027,521.427 546.027,522.094 546.5,523.5C 544.973,523.573 543.973,522.906 543.5,521.5 Z"/></g>
<g><path style="opacity:0.565" fill="#dfa0af" d="M 546.5,523.5 C 548.027,523.427 549.027,524.094 549.5,525.5C 547.973,525.573 546.973,524.906 546.5,523.5 Z"/></g>
<g><path style="opacity:0.565" fill="#dfa0af" d="M 549.5,525.5 C 551.027,525.427 552.027,526.094 552.5,527.5C 550.973,527.573 549.973,526.906 549.5,525.5 Z"/></g>
<g><path style="opacity:0.878" fill="#dc97a6" d="M 472.5,530.5 C 470.952,530.821 470.285,531.821 470.5,533.5C 469.086,531.956 468.753,530.289 469.5,528.5C 470.739,528.942 471.739,529.609 472.5,530.5 Z"/></g>
<g><path style="opacity:1" fill="#bc3f5e" d="M 472.5,530.5 C 534.951,571.283 587.618,622.283 630.5,683.5C 630.427,685.027 631.094,686.027 632.5,686.5C 634.711,688.561 636.377,691.061 637.5,694C 597.477,763.356 542.31,817.19 472,855.5C 475.094,841.195 478.427,826.862 482,812.5C 501.814,718.512 497.981,625.512 470.5,533.5C 470.285,531.821 470.952,530.821 472.5,530.5 Z"/></g>
<g><path style="opacity:0.565" fill="#e1a4b2" d="M 559.5,532.5 C 561.027,532.427 562.027,533.094 562.5,534.5C 560.973,534.573 559.973,533.906 559.5,532.5 Z"/></g>
<g><path style="opacity:0.627" fill="#de9cab" d="M 566.5,537.5 C 568.027,537.427 569.027,538.094 569.5,539.5C 567.973,539.573 566.973,538.906 566.5,537.5 Z"/></g>
<g><path style="opacity:0.816" fill="#e1a2b0" d="M 599.5,563.5 C 601.027,563.427 602.027,564.094 602.5,565.5C 600.973,565.573 599.973,564.906 599.5,563.5 Z"/></g>
<g><path style="opacity:0.816" fill="#e19fad" d="M 606.5,569.5 C 608.027,569.427 609.027,570.094 609.5,571.5C 607.973,571.573 606.973,570.906 606.5,569.5 Z"/></g>
<g><path style="opacity:0.816" fill="#e1a2b0" d="M 826.5,580.5 C 827.906,580.973 828.573,581.973 828.5,583.5C 827.094,583.027 826.427,582.027 826.5,580.5 Z"/></g>
<g><path style="opacity:0.251" fill="#edccd4" d="M 23.5,602.5 C 46.6702,603.167 70.0035,603.833 93.5,604.5C 93.3764,605.107 93.0431,605.44 92.5,605.5C 69.3298,604.833 45.9965,604.167 22.5,603.5C 22.6236,602.893 22.9569,602.56 23.5,602.5 Z"/></g>
<g><path style="opacity:0.941" fill="#d68294" d="M 233.5,646.5 C 232.415,648.587 230.749,649.92 228.5,650.5C 229.585,648.413 231.251,647.08 233.5,646.5 Z"/></g>
<g><path style="opacity:0.816" fill="#df9dac" d="M 342.5,653.5 C 344.552,654.053 344.885,655.053 343.5,656.5C 343.443,655.391 343.11,654.391 342.5,653.5 Z"/></g>
<g><path style="opacity:0.941" fill="#d58093" d="M 224.5,654.5 C 223.089,656.914 221.089,658.581 218.5,659.5C 219.911,657.086 221.911,655.419 224.5,654.5 Z"/></g>
<g><path style="opacity:0.941" fill="#d68294" d="M 215.5,662.5 C 214.089,664.914 212.089,666.581 209.5,667.5C 210.911,665.086 212.911,663.419 215.5,662.5 Z"/></g>
<g><path style="opacity:0.941" fill="#d78496" d="M 206.5,670.5 C 205.089,672.914 203.089,674.581 200.5,675.5C 201.911,673.086 203.911,671.419 206.5,670.5 Z"/></g>
<g><path style="opacity:0.565" fill="#e1a4b2" d="M 630.5,683.5 C 631.906,683.973 632.573,684.973 632.5,686.5C 631.094,686.027 630.427,685.027 630.5,683.5 Z"/></g>
<g><path style="opacity:0.502" fill="#dd9eaf" d="M 54.5,719.5 C 73.6451,721.163 92.9784,722.163 112.5,722.5C 92.8333,722.5 73.1667,722.5 53.5,722.5C 53.2627,721.209 53.596,720.209 54.5,719.5 Z"/></g>
<g><path style="opacity:0.941" fill="#df9ba9" d="M 734.5,725.5 C 736.048,725.821 736.715,726.821 736.5,728.5C 735.599,727.71 734.932,726.71 734.5,725.5 Z"/></g>
<g><path style="opacity:0.941" fill="#e19eab" d="M 739.5,734.5 C 741.048,734.821 741.715,735.821 741.5,737.5C 740.599,736.71 739.932,735.71 739.5,734.5 Z"/></g>
<g><path style="opacity:0.753" fill="#cc6c85" d="M 135.5,753.5 C 136.043,753.56 136.376,753.893 136.5,754.5C 105.174,755.5 73.8404,755.833 42.5,755.5C 73.5,754.833 104.5,754.167 135.5,753.5 Z"/></g>
<g><path style="opacity:0.502" fill="#dc9cad" d="M 10.5,852.5 C 85.1592,854.497 160.159,855.164 235.5,854.5C 160.335,855.499 85.0018,855.833 9.5,855.5C 9.26269,854.209 9.59603,853.209 10.5,852.5 Z"/></g>
</svg>
